<?xml version="1.0" encoding="UTF-8"?>
<!DOCTYPE svg PUBLIC "-//W3C//DTD SVG 1.1//EN" "http://www.w3.org/Graphics/SVG/1.1/DTD/svg11.dtd">
<svg xmlns="http://www.w3.org/2000/svg" xml:space="preserve" width="100%" height="100%" version="1.1" style="shape-rendering:geometricPrecision; text-rendering:geometricPrecision; image-rendering:optimizeQuality; fill-rule:evenodd; clip-rule:evenodd"
viewBox="0 0 5906 2362"  xmlns:xlink="http://www.w3.org/1999/xlink">
 <g>
   <path style="fill:#444;" d="M2381 1521l0 -161c0,-49 10,-88 28,-118 18,-29 46,-50 83,-60l198 -60c21,-6 35,-14 42,-22 7,-8 10,-20 10,-36l0 -27c0,-25 -6,-43 -17,-52 -12,-10 -32,-15 -61,-15l-30 0c-29,0 -49,5 -61,15 -11,10 -17,27 -17,52l0 38 -168 0 0 -61c0,-58 18,-103 55,-134 36,-32 89,-47 157,-47l99 0c67,0 120,16 159,47 38,32 57,75 57,130l0 56c0,50 -10,90 -31,120 -21,31 -52,52 -93,63l-193 52c-15,4 -25,9 -31,15 -5,6 -8,15 -8,27l0 27 352 0 0 151 -530 0zm816 -405l0 130c0,58 6,94 18,109 11,15 36,23 72,23l29 0c36,0 60,-7 71,-22 12,-14 17,-51 17,-110l0 -130c0,-59 -5,-96 -17,-110 -11,-15 -35,-22 -71,-22l-29 0c-36,0 -61,8 -72,23 -12,15 -18,52 -18,109zm-175 -5c0,-104 18,-176 53,-217 36,-41 97,-61 186,-61l81 0c88,0 149,20 185,61 35,41 53,113 53,217l0 141c0,103 -18,175 -53,216 -36,41 -97,61 -185,61l-81 0c-89,0 -150,-20 -186,-61 -35,-40 -53,-113 -53,-216l0 -141z"/>
   <path style="fill:#444;" d="M2950 197c480,0 880,343 967,798l-145 0c-85,-376 -421,-656 -822,-656 -465,0 -842,377 -842,842 0,465 377,842 842,842 401,0 737,-280 822,-656l145 0c-87,455 -487,798 -967,798 -543,0 -984,-440 -984,-984 0,-543 441,-984 984,-984z"/>
   <path style="fill:#444;" d="M302 1171l56 0c20,0 33,-3 41,-10 8,-6 12,-17 12,-32 0,-15 -4,-25 -12,-31 -8,-7 -20,-10 -38,-10l-59 0 0 83zm-34 133l0 -246 91 0c15,0 26,1 34,2 8,1 14,4 20,7 10,6 18,14 24,25 5,10 8,23 8,37 0,14 -3,26 -8,37 -6,10 -14,18 -24,25 -6,3 -13,6 -21,7 -8,2 -21,3 -39,3l-51 0 0 103 -34 0zm619 0l0 -246 176 0 0 30 -142 0 0 74 131 0 0 29 -131 0 0 83 145 0 0 30 -179 0zm656 -217l0 83 57 0c20,0 35,-3 44,-10 8,-6 12,-18 12,-33 0,-15 -4,-25 -12,-31 -8,-6 -23,-9 -44,-9l-57 0zm-33 -29l95 0c16,0 27,1 35,2 7,1 13,3 19,7 11,5 18,13 24,23 5,10 8,22 8,36 0,13 -3,25 -8,34 -6,10 -15,17 -26,22 10,3 16,8 21,14 4,6 6,17 7,32l3 41c1,9 2,15 3,19 2,5 5,8 8,10l0 6 -38 0c-4,-5 -6,-16 -7,-33l0 -1 -2 -32c-1,-16 -5,-27 -11,-32 -6,-5 -20,-7 -44,-7l-54 0 0 105 -33 0 0 -246z"/>
   <path style="fill:#444;" d="M4199 1304l0 -246 175 0 0 30 -142 0 0 74 132 0 0 29 -132 0 0 83 145 0 0 30 -178 0zm621 0l0 -246 37 0 116 179c2,4 4,8 6,11 2,3 4,7 5,10l0 -200 32 0 0 246 -37 0 -117 -181c-2,-3 -4,-6 -5,-9 -2,-3 -3,-6 -5,-9l0 199 -32 0zm706 0l0 -216 -78 0 0 -30 189 0 0 30 -78 0 0 216 -33 0z"/>
  </g>

</svg>
