<?xml version="1.0" standalone="no"?>
<!DOCTYPE svg PUBLIC "-//W3C//DTD SVG 20010904//EN"
 "http://www.w3.org/TR/2001/REC-SVG-20010904/DTD/svg10.dtd">
<svg version="1.0" xmlns="http://www.w3.org/2000/svg"
 width="488.000000pt" height="488.000000pt" viewBox="0 0 488.000000 488.000000"
 preserveAspectRatio="xMidYMid meet">
<metadata>
Created by potrace 1.11, written by Peter Selinger 2001-2013
</metadata>
<g transform="translate(0.000000,488.000000) scale(0.100000,-0.100000)"
fill="#000000" stroke="none">
<path d="M2280 4867 c-3 -3 -41 -8 -84 -12 -43 -4 -88 -9 -100 -11 -12 -2 -34
-6 -51 -9 -284 -49 -554 -145 -805 -288 -550 -314 -962 -836 -1135 -1436 -18
-64 -36 -129 -39 -146 -48 -261 -47 -255 -51 -500 -4 -305 27 -509 122 -795
221 -669 765 -1239 1423 -1489 47 -18 94 -37 105 -41 11 -5 29 -11 40 -13 11
-3 62 -17 112 -31 51 -14 103 -27 115 -30 13 -2 61 -11 108 -19 47 -9 108 -19
135 -22 80 -11 464 -14 530 -5 33 5 84 12 114 15 30 3 57 8 60 9 3 2 28 7 55
10 27 4 53 9 56 11 4 2 21 7 38 10 63 11 269 78 376 121 207 85 416 208 596
351 422 335 735 832 854 1356 9 38 16 70 16 73 0 2 -82 3 -182 2 l-181 -3 -23
-85 c-75 -282 -240 -588 -436 -810 -347 -393 -809 -636 -1338 -704 -97 -12
-415 -14 -480 -3 -14 2 -50 8 -80 11 -30 4 -75 12 -100 18 -25 5 -56 12 -70
14 -45 8 -133 35 -235 71 -511 182 -947 575 -1181 1068 -60 127 -131 328 -150
430 -2 11 -6 31 -9 45 -5 24 -10 53 -20 115 -22 134 -24 404 -5 545 63 468
256 867 577 1195 320 327 754 551 1189 611 27 4 63 8 79 11 61 8 372 10 435 3
36 -5 85 -11 110 -14 67 -8 95 -14 210 -42 364 -90 692 -276 960 -544 64 -63
124 -126 135 -140 11 -14 36 -46 56 -70 83 -102 198 -300 266 -455 29 -66 61
-162 88 -260 l22 -80 182 -3 c99 -1 181 0 181 3 0 20 -55 225 -79 295 -79 232
-157 392 -284 580 -105 156 -165 228 -307 371 -229 231 -453 382 -795 534 -49
22 -194 71 -280 95 -87 24 -82 23 -140 35 -45 9 -67 13 -93 19 -10 2 -45 7
-77 11 -33 4 -69 10 -80 12 -26 6 -449 15 -455 10z"/>
<path d="M1425 3284 c-247 -54 -361 -214 -352 -499 l2 -80 208 -1 207 -2 1 72
c0 102 15 136 68 163 40 20 57 22 170 20 182 -3 210 -24 218 -165 2 -40 -1
-91 -7 -113 -17 -61 -19 -62 -345 -161 -55 -16 -145 -43 -200 -60 -124 -37
-155 -52 -215 -105 -53 -48 -94 -129 -111 -220 -9 -45 -16 -421 -10 -516 1
-16 37 -17 653 -15 l652 3 0 183 c1 155 -1 182 -14 183 -8 0 -203 1 -432 1
-230 0 -419 5 -419 9 -11 74 3 125 40 143 24 13 171 54 445 126 218 58 300
117 356 259 27 69 34 136 34 302 -1 146 -14 206 -62 284 -27 44 -97 106 -152
134 -60 32 -80 39 -152 58 -13 3 -133 7 -268 9 -189 2 -261 -1 -315 -12z"/>
<path d="M3099 3296 c-2 -2 -22 -7 -44 -10 -220 -35 -334 -141 -385 -359 -26
-114 -30 -174 -31 -472 -1 -309 6 -400 36 -520 52 -202 156 -300 365 -341 74
-14 492 -14 575 1 246 45 359 186 393 494 10 87 8 664 -2 736 -38 265 -127
384 -334 447 -58 18 -99 21 -318 24 -138 2 -253 2 -255 0z m361 -381 c111 -25
123 -72 122 -485 0 -450 -12 -474 -247 -474 -253 0 -264 20 -264 484 0 396 13
445 124 474 53 13 210 14 265 1z"/>
</g>
</svg>
