<?xml version="1.0" encoding="UTF-8"?>
<!DOCTYPE svg PUBLIC "-//W3C//DTD SVG 1.1//EN" "http://www.w3.org/Graphics/SVG/1.1/DTD/svg11.dtd">
<!-- Creator: CorelDRAW X7 -->
<svg xmlns="http://www.w3.org/2000/svg" xml:space="preserve" width="100%" height="100%" version="1.1" style="shape-rendering:geometricPrecision; text-rendering:geometricPrecision; image-rendering:optimizeQuality; fill-rule:evenodd; clip-rule:evenodd"
viewBox="0 0 4724 4724"
 xmlns:xlink="http://www.w3.org/1999/xlink">
 <defs>
   <style type="text/css">
   <![CDATA[
    .str2 {stroke:#f8ac01;stroke-width:42}
    .str0 {stroke:#f8ac01;stroke-width:42}
    .str1 {stroke:#000;stroke-width:20}
    .fil0 {fill:none}
    .fil1 {fill:#f8ac01;}
     .outcircle {-webkit-animation: spin 5s linear infinite; animation: spin 5s linear infinite; }
    .dotc {-webkit-animation: spin2 5s linear infinite; animation: spin2 5s linear infinite; }
    
    @-webkit-keyframes spin {
    0%   {
        -webkit-transform: rotate(0deg);  /* Chrome, Opera 15+, Safari 3.1+ */
        -ms-transform: rotate(0deg);  /* IE 9 */
        transform: rotate(0deg);  /* Firefox 16+, IE 10+, Opera */
        transform-origin: 50% 50%;
             }
             100% {
                 -webkit-transform: rotate(360deg);  /* Chrome, Opera 15+, Safari 3.1+ */
                 -ms-transform: rotate(360deg);  /* IE 9 */
                 transform: rotate(360deg);  /* Firefox 16+, IE 10+, Opera */
                    transform-origin: 50% 50%;
             }
         }
         @keyframes spin {
             0%   {
                 -webkit-transform: rotate(0deg);  /* Chrome, Opera 15+, Safari 3.1+ */
                 -ms-transform: rotate(0deg);  /* IE 9 */
                 transform: rotate(0deg);  /* Firefox 16+, IE 10+, Opera */
                    transform-origin: 50% 50%;
             }
             100% {
                 -webkit-transform: rotate(360deg);  /* Chrome, Opera 15+, Safari 3.1+ */
                 -ms-transform: rotate(360deg);  /* IE 9 */
                 transform: rotate(360deg);  /* Firefox 16+, IE 10+, Opera */
                transform-origin: 50% 50%;
             }
         }
 @-webkit-keyframes spin2 {
    0%   {
        -webkit-transform: rotate(0deg);  /* Chrome, Opera 15+, Safari 3.1+ */
        -ms-transform: rotate(0deg);  /* IE 9 */
        transform: rotate(0deg);  /* Firefox 16+, IE 10+, Opera */
        transform-origin: -430% -800%;
             }
             100% {
                 -webkit-transform: rotate(360deg);  /* Chrome, Opera 15+, Safari 3.1+ */
                 -ms-transform: rotate(360deg);  /* IE 9 */
                 transform: rotate(360deg);  /* Firefox 16+, IE 10+, Opera */
                    transform-origin: -430% -800%;
             }
         }
         @keyframes spin2 {
             0%   {
                 -webkit-transform: rotate(0deg);  /* Chrome, Opera 15+, Safari 3.1+ */
                 -ms-transform: rotate(0deg);  /* IE 9 */
                 transform: rotate(0deg);  /* Firefox 16+, IE 10+, Opera */
                    transform-origin: -430% -800%;
             }
             100% {
                 -webkit-transform: rotate(360deg);  /* Chrome, Opera 15+, Safari 3.1+ */
                 -ms-transform: rotate(360deg);  /* IE 9 */
                 transform: rotate(360deg);  /* Firefox 16+, IE 10+, Opera */
                transform-origin: -430% -800%;
             }
         }
        .line1 {-webkit-animation: blink 2s linear infinite; animation: blink 2s linear infinite; }
        .line2 {-webkit-animation: blink 1s linear infinite; animation: blink 1s linear infinite; }
        .woby {-webkit-animation: wobble 2s linear infinite; animation: wobble 2s linear infinite; }
      
        .bplus {-webkit-animation: blink 1500ms linear infinite; animation: blink 1500ms linear infinite; }
        
@-webkit-keyframes blink {
    0%   { opacity:0; }
    100% { opcaity:1; }
}
 @keyframes blink {
    0%   { opacity:0; }
    100% { opcaity:1; }
         }

@-webkit-keyframes wobble {
  from {
    -webkit-transform: none;
    transform: none;
  }

  15% {
    -webkit-transform: translate3d(-25%, 0, 0) rotate3d(0, 0, 1, -5deg);
    transform: translate3d(-25%, 0, 0) rotate3d(0, 0, 1, -5deg);
  }

  30% {
    -webkit-transform: translate3d(20%, 0, 0) rotate3d(0, 0, 1, 3deg);
    transform: translate3d(20%, 0, 0) rotate3d(0, 0, 1, 3deg);
  }

  45% {
    -webkit-transform: translate3d(-15%, 0, 0) rotate3d(0, 0, 1, -3deg);
    transform: translate3d(-15%, 0, 0) rotate3d(0, 0, 1, -3deg);
  }

  60% {
    -webkit-transform: translate3d(10%, 0, 0) rotate3d(0, 0, 1, 2deg);
    transform: translate3d(10%, 0, 0) rotate3d(0, 0, 1, 2deg);
  }

  75% {
    -webkit-transform: translate3d(-5%, 0, 0) rotate3d(0, 0, 1, -1deg);
    transform: translate3d(-5%, 0, 0) rotate3d(0, 0, 1, -1deg);
  }

  to {
    -webkit-transform: none;
    transform: none;
  }
}

@keyframes wobble {
  from {
    -webkit-transform: none;
    transform: none;
  }

  15% {
    -webkit-transform: translate3d(-25%, 0, 0) rotate3d(0, 0, 1, -5deg);
    transform: translate3d(-25%, 0, 0) rotate3d(0, 0, 1, -5deg);
  }

  30% {
    -webkit-transform: translate3d(20%, 0, 0) rotate3d(0, 0, 1, 3deg);
    transform: translate3d(20%, 0, 0) rotate3d(0, 0, 1, 3deg);
  }

  45% {
    -webkit-transform: translate3d(-15%, 0, 0) rotate3d(0, 0, 1, -3deg);
    transform: translate3d(-15%, 0, 0) rotate3d(0, 0, 1, -3deg);
  }

  60% {
    -webkit-transform: translate3d(10%, 0, 0) rotate3d(0, 0, 1, 2deg);
    transform: translate3d(10%, 0, 0) rotate3d(0, 0, 1, 2deg);
  }

  75% {
    -webkit-transform: translate3d(-5%, 0, 0) rotate3d(0, 0, 1, -1deg);
    transform: translate3d(-5%, 0, 0) rotate3d(0, 0, 1, -1deg);
  }

  to {
    -webkit-transform: none;
    transform: none;
  }
}


   ]]>
  </style>
 </defs>
 <g id="Layer_x0020_1">
  <metadata id="CorelCorpID_0Corel-Layer"/>
  <g id="_2197306119808">
   <rect class="fil0" width="4724" height="4724"/>
    <path class="fil0 str0 outcircle" d="M1913 488c144,-34 295,-53 449,-53 574,0 1089,251 1442,649m386 668c64,192 99,397 99,610 0,635 -306,1197 -780,1549m-698 326c-144,34 -294,52 -449,52 -574,0 -1089,-251 -1442,-649m-386 -667c-64,-192 -99,-397 -99,-611 0,-634 307,-1197 780,-1548"/>
   <circle class="fil0 str1" cx="2362" cy="2362" r="1547"/>
   <polygon class="fil1" points="642,828 642,777 591,777 591,755 642,755 642,705 664,705 664,755 715,755 715,777 664,777 664,828 "/>
   <polygon class="fil1" points="424,653 424,541 312,541 312,494 424,494 424,382 471,382 471,494 583,494 583,541 471,541 471,653 "/>
   <line class="fil0 str0" x1="368" y1="4234" x2="952" y2= "4234" />
   <line class="fil0 str0" x1="368" y1="4443" x2="1218" y2= "4443" />
   <line class="fil0 str0" x1="4035" y1="517" x2="4435" y2= "517" />
   <circle class="fil0 str0" cx="2362" cy="2362" r="1167"/>
   <circle class="fil1 dotc" cx="3297" cy="4178" r="106"/>
   <path class="fil1" d="M2052 2354c0,44 0,80 7,115 13,63 37,124 74,175 42,61 100,111 166,145 8,4 14,6 21,9 21,9 45,19 68,24 15,4 38,4 38,23 0,19 -21,18 -40,22 -85,17 -183,-11 -249,-53 -27,-17 -44,-33 -65,-54 -24,-24 -36,-43 -53,-70 -25,-42 -55,-127 -46,-193 5,-38 13,-63 25,-94 6,-13 19,-55 34,-57 9,-2 13,4 20,8zm281 676l58 0c109,0 214,-52 292,-110 53,-39 119,-120 146,-182 52,-115 71,-240 25,-358 -23,-56 -42,-99 -70,-150 -31,-58 -104,-165 -145,-221 -44,-60 -158,-204 -212,-262 -4,-4 -6,-5 -9,-9 -26,-31 -32,-44 -61,-44 -23,0 -74,72 -92,91 -39,39 -181,225 -209,266 -33,47 -57,81 -87,132l-40 70c-4,9 -9,15 -13,23 -56,108 -92,222 -59,351 20,80 44,134 93,200 36,49 66,74 111,108 15,11 28,19 45,28 50,31 148,67 227,67z"/>
   <polygon class="fil1" points="4294,4169 4204,4092 4115,4014 4115,4169 4115,4324 4204,4247 "/>
  </g>
 </g>
</svg>
